PathFileType	4	(X/Y/Z)	C:\Users\dbl\Desktop\LZH\BX\Trimmed_bx_y_5_1801.trc
DataRate	CameraRate	NumFrames	NumMarkers	Units	OrigDataRate	OrigDataStartFrame	OrigNumFrames
50.00	50.00	       4	43	mm	50.00	166	       330
Frame#	Time	Top.Head			R.Acromium			L.Acromium			Sternum			R.ASIS			L.ASIS			V.Sacral			R.Thigh.Upper			R.Thigh.Front			R.Thigh.Rear			R.Knee.Lat			R.Knee.Med			R.Shank.Upper			R.Shank.Front			R.Shank.Rear			R.Ankle.Lat			R.Midfoot.Lat			R.Toe.Lat			R.Toe.Tip			R.Toe.Med			R.Ankle.Med			R.Midfoot.Sup			R.Heel			L.Thigh.Upper			L.Thigh.Front			L.Thigh.Rear			L.Knee.Lat			L.Knee.Med			L.Shank.Upper			L.Shank.Front			L.Shank.Rear			L.Ankle.Lat			L.Midfoot.Lat			L.Toe.Lat			L.Toe.Tip			L.Toe.Med			L.Ankle.Med			L.Midfoot.Sup			L.Heel			origin1 front left			origin2 front right			origin 3 back right			origin 4 back leftt			
		X1	Y1	Z1	X2	Y2	Z2	X3	Y3	Z3	X4	Y4	Z4	X5	Y5	Z5	X6	Y6	Z6	X7	Y7	Z7	X8	Y8	Z8	X9	Y9	Z9	X10	Y10	Z10	X11	Y11	Z11	X12	Y12	Z12	X13	Y13	Z13	X14	Y14	Z14	X15	Y15	Z15	X16	Y16	Z16	X17	Y17	Z17	X18	Y18	Z18	X19	Y19	Z19	X20	Y20	Z20	X21	Y21	Z21	X22	Y22	Z22	X23	Y23	Z23	X24	Y24	Z24	X25	Y25	Z25	X26	Y26	Z26	X27	Y27	Z27	X28	Y28	Z28	X29	Y29	Z29	X30	Y30	Z30	X31	Y31	Z31	X32	Y32	Z32	X33	Y33	Z33	X34	Y34	Z34	X35	Y35	Z35	X36	Y36	Z36	X37	Y37	Z37	X38	Y38	Z38	X39	Y39	Z39	X40	Y40	Z40	X41	Y41	Z41	X42	Y42	Z42	X43	Y43	Z43	

166	3.300	-230.16919	271.04865	1258.74487	-324.57504	54.62130	1069.55432	-369.36536	443.30069	998.17175	-414.66516	262.24884	1134.30078	-732.59039	160.32402	1014.42474	-721.03577	344.11462	940.36926	-960.53119	270.90027	768.85657	-720.26843	77.19089	733.51538	-664.17865	134.28030	740.37402	-622.11713	29.80205	628.99335	-526.18341	51.75605	541.48718	-489.37280	159.60144	523.83289	-548.22797	57.71304	491.04868	-453.64862	101.15728	512.35931	-608.47516	76.23492	447.86816	-672.78668	149.22926	213.49022	-614.45941	84.78663	167.75726	-568.96552	61.10060	165.73390	-490.17416	95.88168	160.42676	-529.39270	149.04744	164.96478	-618.07501	218.71820	213.46217	-587.85834	192.87634	166.40698	-711.47626	221.92734	174.12727	-691.89374	448.48041	704.66003	-633.53394	382.74496	733.26410	-599.90778	462.72879	624.18304	-507.57782	442.50659	549.61029	-447.27023	338.47485	533.53583	-492.12906	443.13757	511.74237	-441.21893	396.79843	485.98413	-557.65649	438.09515	477.88840	-665.66785	411.28674	210.83115	-581.78748	466.10388	166.98265	-542.36206	475.19431	159.77000	-479.55035	429.45081	163.49141	-522.06879	385.00323	175.82794	-629.46069	326.46454	197.39467	-590.85883	345.14670	164.08687	-729.34082	340.73386	166.38060	-443.80399	448.16959	145.96529	-450.64127	76.01678	143.93495	-806.46387	82.53226	142.92947	-799.75391	457.88596	144.20186	
167	3.320	-230.97702	272.14066	1252.03003	-323.48645	54.87597	1063.92603	-369.98102	444.43811	991.46704	-414.31177	262.14529	1130.08777	-733.61328	160.59679	1014.30701	-721.74261	343.56354	938.60583	-961.39636	271.27823	763.69904	-721.07410	77.36216	730.76721	-665.60223	134.86534	737.92596	-620.30219	28.99812	626.51392	-525.44592	51.55025	540.74420	-489.21497	159.85455	523.43066	-547.27924	57.49406	490.42285	-452.79944	101.08265	511.99649	-607.75250	75.95140	447.37903	-672.59033	149.32951	213.48701	-614.47986	85.12987	167.76591	-568.88623	61.45089	165.78412	-490.21899	95.80952	160.59097	-529.35413	149.12868	164.92557	-618.23145	218.86702	213.19756	-587.61865	193.08992	166.27336	-711.46027	222.14488	174.29649	-692.80444	448.51538	701.60846	-634.93799	382.80261	730.88495	-598.33691	463.62903	621.69397	-506.84509	442.32764	548.77771	-446.57477	338.03244	533.11322	-491.00354	443.27133	511.44180	-440.37317	396.51965	485.49200	-556.72144	438.16971	477.46637	-665.39514	411.03668	210.83426	-581.68854	465.91754	167.05547	-542.42780	475.11990	159.88528	-479.52188	429.48117	163.53593	-522.07397	384.97968	175.79323	-629.54694	325.48251	197.84673	-590.87878	345.04907	164.07768	-729.32391	340.54089	166.32217	-443.82196	448.15323	145.94185	-450.64133	76.01098	143.92551	-806.40411	82.53738	142.88219	-799.65283	458.07153	144.17526	
168	3.340	-232.00000	273.24829	1246.01917	-322.55991	55.16066	1058.65137	-370.54523	445.59094	985.30145	-414.02274	262.03992	1125.97192	-734.55621	160.85849	1014.22607	-722.37518	343.05951	936.96259	-962.42395	271.32217	759.16254	-721.77094	77.55457	728.26776	-666.88977	135.40834	735.61249	-618.60327	28.26189	624.20898	-524.81384	51.40688	540.14691	-489.23605	160.14758	523.11719	-546.49390	57.44077	489.85739	-452.10992	101.13979	511.67056	-607.11279	75.67111	446.93335	-672.45935	149.37952	213.52377	-614.41107	85.38403	167.77821	-568.82080	61.78229	165.88240	-490.28235	95.73674	160.76456	-529.34766	149.19128	164.91261	-618.28186	219.00195	212.96404	-587.45001	193.29533	166.16306	-711.49060	222.32088	174.38489	-693.79987	448.37604	698.85040	-636.40613	382.98312	729.02295	-596.83734	464.46570	619.34131	-506.38214	441.99698	548.15723	-446.11111	337.48453	532.83160	-490.20700	443.08420	511.11768	-439.64539	395.88553	485.22571	-556.04510	438.04059	477.10825	-665.12054	410.79507	210.95006	-581.61029	465.68787	167.09749	-542.45990	475.04385	159.96625	-479.52548	429.50385	163.56204	-522.07739	384.92245	175.74464	-629.43628	324.37912	198.13687	-590.89972	344.92340	164.04187	-729.36652	340.37048	166.27078	-443.83078	448.13690	145.92842	-450.64371	76.01560	143.91264	-806.31256	82.54877	142.82721	-799.65131	458.12830	144.13052	
169	3.360	-233.22855	274.38782	1240.70215	-321.79300	55.47350	1053.72754	-370.96069	446.73285	979.66827	-413.79733	261.93253	1121.95630	-735.42010	161.10896	1014.18115	-722.93451	342.60175	935.43811	-963.55499	271.16013	755.11536	-722.43280	77.76627	725.97821	-668.06787	135.83015	733.54364	-617.01782	27.59190	622.07538	-524.22144	51.28220	539.72266	-489.17929	160.35851	522.84259	-545.83563	57.49545	489.33411	-451.58551	101.27357	511.39462	-606.50397	75.39377	446.57620	-672.37781	149.38637	213.57616	-614.24243	85.51156	167.85530	-568.75067	62.06461	166.04103	-490.35739	95.68317	160.91846	-529.35040	149.22148	164.92134	-618.25000	219.11758	212.83658	-587.37640	193.47835	166.07164	-711.62524	222.43428	174.50374	-694.85608	448.06760	696.28540	-637.78888	383.29501	727.68909	-595.39905	465.24509	617.12891	-506.10815	441.79166	547.76697	-445.75211	336.85974	532.71405	-489.66565	442.71915	510.88773	-439.01743	395.08374	485.19495	-555.58008	437.71597	476.79529	-664.89899	410.57214	211.13832	-581.58191	465.44681	167.13194	-542.47150	474.95959	160.01770	-479.54312	429.53104	163.59578	-522.07513	384.85468	175.69615	-629.07068	323.49133	198.06175	-590.90643	344.80905	163.94101	-729.42963	340.24557	166.23048	-443.82388	448.13083	145.92879	-450.65518	76.04903	143.90378	-806.21576	82.54028	142.82870	-799.63214	458.13181	144.04721	
